<svg height="442pt" viewBox="0 -98 442 442" width="442pt" xmlns="http://www.w3.org/2000/svg"><path d="m442 24.71875v211.421875l-110.558594-85.832031v-60.308594zm0 0" fill="#00acea"/><path d="m217.121094 127.589844c9.3125.003906 17.328125-6.574219 19.148437-15.707032 1.820313-9.132812-3.066406-18.28125-11.667969-21.84375-8.605468-3.566406-18.527343-.558593-23.703124 7.183594-5.175782 7.742188-4.164063 18.0625 2.421874 24.648438 3.65625 3.667968 8.621094 5.726562 13.800782 5.71875zm-150.242188 0c9.3125.003906 17.332032-6.574219 19.152344-15.707032 1.816406-9.132812-3.070312-18.28125-11.671875-21.84375-8.601563-3.566406-18.527344-.558593-23.703125 7.183594-5.175781 7.742188-4.160156 18.0625 2.421875 24.648438 3.65625 3.667968 8.625 5.726562 13.800781 5.71875zm75.121094-4.398438c9.308594-.003906 17.316406-6.582031 19.128906-15.714844 1.8125-9.128906-3.078125-18.265624-11.679687-21.824218-8.597657-3.558594-18.515625-.546875-23.683594 7.195312-5.167969 7.738282-4.148437 18.054688 2.433594 24.632813 3.65625 3.664062 8.625 5.71875 13.800781 5.710937zm144.148438-83.191406v165.941406c.007812 22.09375-17.90625 40.003906-40 40h-206.148438c-22.089844 0-40-17.910156-40-40v-165.941406c0-22.089844 17.910156-40 40-40h206.148438c22.09375-.0078125 40.007812 17.90625 40 40zm0 0" fill="#00efd1"/><g fill="#f4b844"><path d="m134 245.96875h16v-122.796875l-16 .019531zm0 0"/><path d="m209 147.96875h-31.640625c-4.417969 0-8.359375 3.203125-8.359375 7.621094v90.378906h16v-82h32.121094c4.417968 0 7.878906-3.960938 7.878906-8.378906v-28.039063l-16 .039063zm0 0"/><path d="m106.640625 147.96875h-31.640625v-20.417969l-16 .039063v28c0 4.417968 3.460938 8.378906 7.878906 8.378906h32.121094v82h16v-90.378906c0-4.417969-3.941406-7.621094-8.359375-7.621094zm0 0"/></g><path d="m122.539062 84.226562c-10.742187 10.746094-10.742187 28.167969.003907 38.914063 10.746093 10.742187 28.167969 10.742187 38.910156 0 10.746094-10.746094 10.75-28.167969.003906-38.914063-10.753906-10.726562-28.164062-10.726562-38.917969 0zm0 0" fill="#fedb41"/><path d="m197.664062 88.613281c-10.746093 10.746094-10.746093 28.167969 0 38.914063 10.746094 10.746094 28.167969 10.746094 38.914063 0 10.742187-10.746094 10.742187-28.167969-.003906-38.914063-10.75-10.730469-28.160157-10.730469-38.910157 0zm0 0" fill="#fedb41"/><path d="m47.421875 88.613281c-10.746094 10.746094-10.746094 28.167969 0 38.914063 10.746094 10.75 28.171875 10.746094 38.914063 0 10.746093-10.746094 10.746093-28.167969 0-38.914063-10.746094-10.746093-28.167969-10.746093-38.914063 0zm0 0" fill="#fedb41"/></svg>